<?xml version="1.0" encoding="UTF-8"?>
<svg id="Logo" xmlns="http://www.w3.org/2000/svg" xmlns:xlink="http://www.w3.org/1999/xlink" viewBox="0 0 500 150">
  <defs>
    <linearGradient id="linear-gradient" x1="134.616" y1="111.081" x2="158.677" y2="111.081" gradientUnits="userSpaceOnUse">
      <stop offset=".45" stop-color="#14f7d9"/>
      <stop offset=".492" stop-color="#1fecdc"/>
      <stop offset=".566" stop-color="#3dd0e4"/>
      <stop offset=".664" stop-color="#6ea3f1"/>
      <stop offset=".75" stop-color="#9f77ff"/>
    </linearGradient>
    <clipPath id="clippath">
      <path d="M156.076,96.227h-9.461c-.922,0-1.783.499-2.252,1.3l-9.423,16.33c-.113.197-.189.385-.227.567-.128.446-.128.899-.007,1.33.053.204.128.385.234.589l.038.053,4.761,8.252c.446.778,1.202,1.239,2.078,1.285.854.045,1.67-.34,2.169-1.028.083-.091.121-.166.166-.234l.03-.068,14.139-24.483c.476-.809.476-1.783,0-2.592-.469-.816-1.308-1.3-2.245-1.3Z" fill="url(#linear-gradient)"/>
    </clipPath>
    <linearGradient id="linear-gradient-2" x1=".004" y1="161.211" x2="172.425" y2="-11.211" xlink:href="#linear-gradient"/>
    <linearGradient id="linear-gradient-3" x1="0" y1="75.072" x2="37.81" y2="75.072" xlink:href="#linear-gradient"/>
    <linearGradient id="linear-gradient-4" x1="0" y1="75.072" x2="37.81" y2="75.072" xlink:href="#linear-gradient"/>
    <clipPath id="clippath-1">
      <path d="M16.141,76.874c-.665-1.149-.665-2.577,0-3.725l21.227-36.801c.461-.801.461-1.798,0-2.592l-4.716-8.191c-.469-.808-1.307-1.292-2.252-1.3-.937,0-1.776.491-2.244,1.3L.34,73.738c-.453.786-.453,1.761,0,2.547l27.891,48.302c.469.808,1.315,1.292,2.252,1.292s1.776-.484,2.245-1.292l4.73-8.191c.469-.801.469-1.798,0-2.6l-21.317-36.922Z" fill="url(#linear-gradient-4)"/>
    </clipPath>
    <linearGradient id="linear-gradient-5" x1=".004" y1="161.211" x2="172.425" y2="-11.211" xlink:href="#linear-gradient"/>
    <linearGradient id="linear-gradient-6" x1="109.122" y1="52.832" x2="172.425" y2="52.832" xlink:href="#linear-gradient"/>
    <linearGradient id="linear-gradient-7" x1="109.122" y1="52.832" x2="172.425" y2="52.832" xlink:href="#linear-gradient"/>
    <clipPath id="clippath-2">
      <path d="M172.081,73.708l-27.786-48.129c-.469-.816-1.315-1.3-2.252-1.3s-1.776.484-2.245,1.3l-4.731,8.184c-.461.801-.468,1.798,0,2.6l16.428,28.474c.415.725.415,1.594,0,2.32-.423.733-1.171,1.164-2.018,1.164h-37.753c-.945,0-1.784.484-2.252,1.3-.469.809-.469,1.783,0,2.592l4.541,7.874c.461.801,1.33,1.3,2.252,1.3h51.37c.922,0,1.784-.491,2.245-1.292l2.191-3.786c.469-.801.469-1.799.008-2.6Z" fill="url(#linear-gradient-7)"/>
    </clipPath>
    <linearGradient id="linear-gradient-8" x1=".004" y1="161.211" x2="172.425" y2="-11.211" xlink:href="#linear-gradient"/>
    <linearGradient id="linear-gradient-9" x1="39.359" y1="75" x2="133.07" y2="75" xlink:href="#linear-gradient"/>
    <linearGradient id="linear-gradient-10" x1="39.359" y1="75" x2="133.07" y2="75" xlink:href="#linear-gradient"/>
    <clipPath id="clippath-3">
      <path d="M60.385,16.866c-.423-.725-.423-1.594,0-2.32.416-.726,1.171-1.164,2.01-1.164h47.652c.846,0,1.594.438,2.018,1.164.416.726.416,1.595,0,2.32l-16.526,28.617c-.461.801-.461,1.791.007,2.592l4.731,8.207c.468.809,1.315,1.292,2.252,1.3.937,0,1.776-.484,2.244-1.3l27.945-48.121c.469-.801.469-1.798.008-2.6l-2.456-4.262c-.461-.801-1.322-1.3-2.252-1.3H44.41c-.922,0-1.783.499-2.244,1.3l-2.456,4.247c-.469.801-.469,1.799,0,2.6l72.332,124.987c.423.726.423,1.595,0,2.328-.415.725-1.171,1.164-2.01,1.164h-47.637c-.839,0-1.594-.438-2.01-1.164-.423-.726-.423-1.595,0-2.328l16.428-28.473c.461-.793.461-1.791,0-2.592l-4.715-8.184c-.469-.816-1.315-1.3-2.252-1.3s-1.776.484-2.252,1.3l-27.794,48.129c-.461.801-.461,1.798,0,2.599l2.366,4.096c.461.801,1.322,1.292,2.244,1.292h83.607c.929,0,1.791-.491,2.252-1.292l2.335-4.035c.461-.801.461-1.798,0-2.6L60.385,16.866Z" fill="url(#linear-gradient-10)"/>
    </clipPath>
    <linearGradient id="linear-gradient-11" x1=".004" y1="161.211" x2="172.425" y2="-11.211" xlink:href="#linear-gradient"/>
  </defs>
  <g>
    <path d="M240.498,73.011l-23.764-9.073c-2.518-1.036-2.866-3.085-2.866-5.134v-2.057c0-3.66,1.799-5.293,5.837-5.293h8.423c4.226,0,6.374,2.147,6.374,6.374v3.35c0,.355.295.65.651.65h12.959c.356,0,.651-.295.651-.65v-9.829c0-9.262-4.136-13.398-13.398-13.398h-22.358c-9.262,0-13.39,4.136-13.39,13.398v8.854c0,8.839,1.391,12.506,9.232,15.5l23.114,8.854c3.077,1.074,3.077,3.41,3.077,5.678v3.024c0,3.66-1.792,5.293-5.829,5.293h-9.504c-4.227,0-6.374-2.147-6.374-6.374v-4.537c0-.355-.295-.65-.65-.65h-12.96c-.355,0-.65.295-.65.65v11.016c0,9.262,4.136,13.391,13.398,13.391h23.439c9.262,0,13.39-4.128,13.39-13.391v-8.967c0-9.209-1.27-13.806-8.801-16.68Z" fill="#f8f8f8"/>
    <path d="M291.935,98.605c-.015-.25-.219-.439-.469-.439h-10.154c-4.537,0-6.744-2.2-6.744-6.729v-21.7c0-1.195.975-2.162,2.162-2.162h14.585c.34,0,.628-.257.65-.59.219-2.896.87-8.34,2.745-12.317.144-.302.016-.552-.045-.65s-.242-.333-.597-.333h-17.337c-1.187,0-2.162-.968-2.162-2.162v-12.922c0-.355-.287-.65-.651-.65h-13.383c-.356,0-.65.295-.65.65v59.157c0,9.882,4.408,14.29,14.29,14.29h19.885c.25,0,.477-.121.605-.333.061-.098.181-.348.045-.643-2.11-4.378-2.646-10.177-2.775-12.468Z" fill="#f8f8f8"/>
    <path d="M344.272,53.693h-27.688c-9.89,0-14.298,4.416-14.298,14.298v29.768c0,9.882,4.408,14.29,14.298,14.29h27.688c9.89,0,14.298-4.408,14.298-14.29v-29.768c0-9.882-4.408-14.298-14.298-14.298ZM344,91.438c0,4.529-2.238,6.729-6.85,6.729h-13.444c-4.529,0-6.729-2.2-6.729-6.729v-17.126c0-4.529,2.2-6.729,6.729-6.729h13.444c4.612,0,6.85,2.2,6.85,6.729v17.126Z" fill="#f8f8f8"/>
    <path d="M383.196,37.951h-13.39c-.356,0-.651.295-.651.65v72.797c0,.363.295.65.651.65h13.39c.355,0,.65-.287.65-.65V38.601c0-.355-.295-.65-.65-.65Z" fill="#f8f8f8"/>
    <path d="M408.472,37.951h-13.39c-.355,0-.65.295-.65.65v72.797c0,.363.295.65.65.65h13.39c.356,0,.651-.287.651-.65V38.601c0-.355-.295-.65-.651-.65Z" fill="#f8f8f8"/>
    <path d="M481.663,84.602c-.507-.733-.514-1.679-.023-2.42l18.252-27.477c.189-.295.083-.567.03-.665-.061-.106-.227-.348-.574-.348h-15.939c-.212,0-.416.113-.537.287l-9.225,13.64c-.401.597-1.066.953-1.784.953h-.008c-.711,0-1.384-.355-1.784-.945l-9.33-13.648c-.121-.182-.325-.287-.537-.287h-16.12c-.355,0-.522.249-.574.348-.053.106-.159.386.038.673l18.169,26.426c.507.733.514,1.694.015,2.435l-18.555,27.461c-.197.295-.091.567-.038.673.061.098.227.34.575.34h16.029c.212,0,.416-.106.537-.28l9.338-13.769c.408-.59,1.074-.945,1.785-.945h.007c.711,0,1.384.348,1.784.938l9.444,13.776c.121.174.325.28.537.28h16.12c.356,0,.522-.242.575-.348.053-.098.166-.378-.038-.665l-18.169-26.433Z" fill="#f8f8f8"/>
    <path d="M434.638,46.086l-13.753,3.77c-.842.231-1.672-.403-1.672-1.275v-9.106c0-.73.592-1.322,1.322-1.322h13.753c.73,0,1.322.592,1.322,1.322v5.336c0,.596-.398,1.118-.973,1.275Z" fill="#f8f8f8"/>
    <path d="M419.551,110.727v-52.384c0-.59.391-1.109.959-1.271l13.077-3.739c.845-.242,1.686.393,1.686,1.271v56.123c0,.73-.592,1.322-1.322,1.322h-13.077c-.73,0-1.322-.592-1.322-1.322Z" fill="#f8f8f8"/>
  </g>
  <g>
    <g>
      <path d="M156.076,96.227h-9.461c-.922,0-1.783.499-2.252,1.3l-9.423,16.33c-.113.197-.189.385-.227.567-.128.446-.128.899-.007,1.33.053.204.128.385.234.589l.038.053,4.761,8.252c.446.778,1.202,1.239,2.078,1.285.854.045,1.67-.34,2.169-1.028.083-.091.121-.166.166-.234l.03-.068,14.139-24.483c.476-.809.476-1.783,0-2.592-.469-.816-1.308-1.3-2.245-1.3Z" fill="url(#linear-gradient)"/>
      <g clip-path="url(#clippath)">
        <rect x=".004" y="-11.211" width="172.422" height="172.422" fill="url(#linear-gradient-2)"/>
      </g>
    </g>
    <g>
      <path d="M16.141,76.874c-.665-1.149-.665-2.577,0-3.725l21.227-36.801c.461-.801.461-1.798,0-2.592l-4.716-8.191c-.469-.808-1.307-1.292-2.252-1.3-.937,0-1.776.491-2.244,1.3L.34,73.738c-.453.786-.453,1.761,0,2.547l27.891,48.302c.469.808,1.315,1.292,2.252,1.292s1.776-.484,2.245-1.292l4.73-8.191c.469-.801.469-1.798,0-2.6l-21.317-36.922Z" fill="url(#linear-gradient-3)"/>
      <g clip-path="url(#clippath-1)">
        <rect x=".004" y="-11.211" width="172.422" height="172.422" fill="url(#linear-gradient-5)"/>
      </g>
    </g>
    <g>
      <path d="M172.081,73.708l-27.786-48.129c-.469-.816-1.315-1.3-2.252-1.3s-1.776.484-2.245,1.3l-4.731,8.184c-.461.801-.468,1.798,0,2.6l16.428,28.474c.415.725.415,1.594,0,2.32-.423.733-1.171,1.164-2.018,1.164h-37.753c-.945,0-1.784.484-2.252,1.3-.469.809-.469,1.783,0,2.592l4.541,7.874c.461.801,1.33,1.3,2.252,1.3h51.37c.922,0,1.784-.491,2.245-1.292l2.191-3.786c.469-.801.469-1.799.008-2.6Z" fill="url(#linear-gradient-6)"/>
      <g clip-path="url(#clippath-2)">
        <rect x=".004" y="-11.211" width="172.422" height="172.422" fill="url(#linear-gradient-8)"/>
      </g>
    </g>
    <g>
      <path d="M60.385,16.866c-.423-.725-.423-1.594,0-2.32.416-.726,1.171-1.164,2.01-1.164h47.652c.846,0,1.594.438,2.018,1.164.416.726.416,1.595,0,2.32l-16.526,28.617c-.461.801-.461,1.791.007,2.592l4.731,8.207c.468.809,1.315,1.292,2.252,1.3.937,0,1.776-.484,2.244-1.3l27.945-48.121c.469-.801.469-1.798.008-2.6l-2.456-4.262c-.461-.801-1.322-1.3-2.252-1.3H44.41c-.922,0-1.783.499-2.244,1.3l-2.456,4.247c-.469.801-.469,1.799,0,2.6l72.332,124.987c.423.726.423,1.595,0,2.328-.415.725-1.171,1.164-2.01,1.164h-47.637c-.839,0-1.594-.438-2.01-1.164-.423-.726-.423-1.595,0-2.328l16.428-28.473c.461-.793.461-1.791,0-2.592l-4.715-8.184c-.469-.816-1.315-1.3-2.252-1.3s-1.776.484-2.252,1.3l-27.794,48.129c-.461.801-.461,1.798,0,2.599l2.366,4.096c.461.801,1.322,1.292,2.244,1.292h83.607c.929,0,1.791-.491,2.252-1.292l2.335-4.035c.461-.801.461-1.798,0-2.6L60.385,16.866Z" fill="url(#linear-gradient-9)"/>
      <g clip-path="url(#clippath-3)">
        <rect x=".004" y="-11.211" width="172.422" height="172.422" fill="url(#linear-gradient-11)"/>
      </g>
    </g>
  </g>
</svg>
