<?xml version="1.0" encoding="UTF-8"?>
<svg id="Logo" xmlns="http://www.w3.org/2000/svg" xmlns:xlink="http://www.w3.org/1999/xlink" viewBox="0 0 2000 600">
  <defs>
    <clipPath id="clippath">
      <path d="M624.302,384.906h-37.844c-3.687,0-7.133,1.995-9.007,5.2l-37.694,65.32c-.453.786-.756,1.542-.906,2.267-.514,1.783-.514,3.597-.029,5.32.211.816.514,1.542.936,2.358l.152.212,19.042,33.007c1.784,3.113,4.807,4.957,8.312,5.138,3.417.181,6.68-1.36,8.675-4.111.332-.363.484-.665.666-.937l.121-.273,56.554-97.934c1.904-3.235,1.904-7.134,0-10.368-1.874-3.265-5.231-5.2-8.978-5.2Z" fill="none"/>
    </clipPath>
    <linearGradient id="linear-gradient" x1=".015" y1="644.843" x2="689.701" y2="-44.843" gradientUnits="userSpaceOnUse">
      <stop offset=".45" stop-color="#14f7d9"/>
      <stop offset=".492" stop-color="#1fecdc"/>
      <stop offset=".566" stop-color="#3dd0e4"/>
      <stop offset=".664" stop-color="#6ea3f1"/>
      <stop offset=".75" stop-color="#9f77ff"/>
    </linearGradient>
    <clipPath id="clippath-1">
      <path d="M64.564,307.496c-2.66-4.595-2.66-10.307,0-14.902l84.908-147.204c1.843-3.204,1.843-7.194,0-10.368l-18.862-32.766c-1.874-3.234-5.229-5.169-9.007-5.199-3.749,0-7.104,1.965-8.976,5.199L1.36,294.952c-1.814,3.144-1.814,7.043,0,10.187l111.566,193.209c1.874,3.234,5.26,5.168,9.008,5.168s7.104-1.934,8.978-5.168l18.921-32.766c1.874-3.204,1.874-7.194,0-10.398l-85.269-147.688Z" fill="none"/>
    </clipPath>
    <clipPath id="clippath-2">
      <path d="M688.323,294.831l-111.144-192.514c-1.874-3.264-5.26-5.199-9.007-5.199s-7.104,1.935-8.978,5.199l-18.923,32.735c-1.843,3.204-1.873,7.194,0,10.398l65.714,113.894c1.662,2.901,1.662,6.378,0,9.28-1.693,2.932-4.685,4.655-8.07,4.655h-151.013c-3.778,0-7.134,1.935-9.007,5.199-1.874,3.235-1.874,7.134,0,10.368l18.165,31.496c1.843,3.204,5.321,5.199,9.008,5.199h205.481c3.688,0,7.135-1.965,8.978-5.169l8.765-15.144c1.874-3.204,1.874-7.195.031-10.398Z" fill="none"/>
    </clipPath>
    <clipPath id="clippath-3">
      <path d="M241.542,67.466c-1.693-2.901-1.693-6.378,0-9.28,1.662-2.902,4.685-4.655,8.039-4.655h190.61c3.386,0,6.378,1.753,8.072,4.655,1.662,2.902,1.662,6.378,0,9.28l-66.106,114.468c-1.845,3.204-1.845,7.164.029,10.368l18.923,32.826c1.873,3.235,5.259,5.169,9.007,5.199,3.747,0,7.102-1.934,8.977-5.199l111.778-192.484c1.874-3.204,1.874-7.194.031-10.398l-9.823-17.047c-1.845-3.204-5.29-5.199-9.008-5.199H177.642c-3.687,0-7.133,1.995-8.976,5.199l-9.824,16.987c-1.874,3.204-1.874,7.195,0,10.398l289.329,499.95c1.693,2.902,1.693,6.378,0,9.31-1.662,2.901-4.685,4.655-8.041,4.655h-190.549c-3.355,0-6.377-1.753-8.039-4.655-1.693-2.902-1.693-6.378,0-9.31l65.712-113.894c1.845-3.174,1.845-7.164,0-10.368l-18.861-32.735c-1.874-3.265-5.26-5.199-9.007-5.199s-7.104,1.934-9.008,5.199l-111.175,192.514c-1.843,3.204-1.843,7.194,0,10.397l9.462,16.383c1.843,3.204,5.29,5.169,8.976,5.169h334.429c3.718,0,7.163-1.965,9.008-5.169l9.339-16.141c1.843-3.204,1.843-7.194,0-10.398L241.542,67.466Z" fill="none"/>
    </clipPath>
  </defs>
  <g>
    <path d="M961.991,292.046l-95.057-36.293c-10.071-4.143-11.463-12.34-11.463-20.536v-8.226c0-14.638,7.198-21.171,23.349-21.171h33.692c16.906,0,25.495,8.589,25.495,25.496v13.398c0,1.422,1.18,2.601,2.602,2.601h51.837c1.422,0,2.602-1.179,2.602-2.601v-39.317c0-37.049-16.544-53.592-53.593-53.592h-89.431c-37.049,0-53.562,16.543-53.562,53.592v35.416c0,35.355,5.564,50.023,36.928,62l92.455,35.416c12.309,4.295,12.309,13.64,12.309,22.713v12.098c0,14.638-7.168,21.171-23.318,21.171h-38.016c-16.907,0-25.496-8.589-25.496-25.496v-18.146c0-1.421-1.178-2.601-2.601-2.601h-51.838c-1.421,0-2.601,1.18-2.601,2.601v44.065c0,37.049,16.544,53.562,53.593,53.562h93.756c37.049,0,53.562-16.513,53.562-53.562v-35.869c0-36.837-5.082-55.225-35.204-66.718Z" fill="#f8f8f8"/>
    <path d="M1167.739,394.421c-.061-.998-.877-1.754-1.875-1.754h-40.617c-18.146,0-26.977-8.801-26.977-26.917v-86.8c0-4.779,3.902-8.65,8.649-8.65h58.341c1.36,0,2.51-1.028,2.601-2.359.877-11.583,3.479-33.359,10.978-49.267.576-1.21.062-2.208-.18-2.601s-.969-1.331-2.389-1.331h-69.35c-4.748,0-8.649-3.871-8.649-8.65v-51.687c0-1.422-1.149-2.601-2.602-2.601h-53.531c-1.422,0-2.601,1.179-2.601,2.601v236.628c0,39.529,17.632,57.161,57.161,57.161h79.541c.998,0,1.906-.484,2.42-1.331.242-.393.725-1.391.18-2.571-8.438-17.511-10.585-40.708-11.099-49.872Z" fill="#f8f8f8"/>
    <path d="M1377.088,214.773h-110.754c-39.559,0-57.19,17.662-57.19,57.191v119.07c0,39.529,17.631,57.161,57.19,57.161h110.754c39.559,0,57.19-17.632,57.19-57.161v-119.07c0-39.529-17.631-57.191-57.19-57.191ZM1376,365.75c0,18.116-8.952,26.917-27.401,26.917h-53.775c-18.115,0-26.917-8.801-26.917-26.917v-68.503c0-18.116,8.801-26.917,26.917-26.917h53.775c18.449,0,27.401,8.801,27.401,26.917v68.503Z" fill="#f8f8f8"/>
    <path d="M1532.784,151.805h-53.562c-1.422,0-2.602,1.179-2.602,2.601v291.188c0,1.452,1.18,2.601,2.602,2.601h53.562c1.421,0,2.601-1.149,2.601-2.601V154.406c0-1.422-1.18-2.601-2.601-2.601Z" fill="#f8f8f8"/>
    <path d="M1633.888,151.805h-53.562c-1.421,0-2.601,1.179-2.601,2.601v291.188c0,1.452,1.18,2.601,2.601,2.601h53.562c1.422,0,2.602-1.149,2.602-2.601V154.406c0-1.422-1.18-2.601-2.602-2.601Z" fill="#f8f8f8"/>
    <path d="M1926.65,338.41c-2.026-2.934-2.057-6.714-.09-9.678l73.008-109.906c.756-1.18.334-2.268.121-2.661-.242-.423-.907-1.391-2.298-1.391h-63.754c-.848,0-1.663.454-2.147,1.149l-36.898,54.56c-1.602,2.389-4.265,3.811-7.137,3.811h-.031c-2.843,0-5.535-1.422-7.137-3.78l-37.321-54.59c-.484-.726-1.301-1.149-2.147-1.149h-64.481c-1.421,0-2.087.998-2.298,1.391-.211.423-.635,1.542.151,2.692l72.677,105.703c2.026,2.934,2.056,6.775.061,9.738l-74.219,109.846c-.787,1.18-.363,2.268-.152,2.692.242.393.908,1.361,2.299,1.361h64.118c.846,0,1.663-.423,2.147-1.119l37.35-55.074c1.633-2.359,4.294-3.78,7.139-3.78h.03c2.843,0,5.535,1.391,7.137,3.75l37.775,55.105c.483.696,1.301,1.119,2.147,1.119h64.479c1.422,0,2.088-.968,2.299-1.391.211-.393.665-1.512-.152-2.661l-72.675-105.733Z" fill="#f8f8f8"/>
    <path d="M1738.55,184.343l-55.013,15.08c-3.366.923-6.687-1.611-6.687-5.101v-36.423c0-2.921,2.368-5.289,5.289-5.289h55.013c2.921,0,5.289,2.368,5.289,5.289v21.342c0,2.383-1.593,4.471-3.891,5.101Z" fill="#f8f8f8"/>
    <path d="M1678.203,442.906v-209.537c0-2.361,1.565-4.436,3.835-5.085l52.308-14.955c3.379-.966,6.743,1.571,6.743,5.085v224.493c0,2.921-2.368,5.289-5.289,5.289h-52.308c-2.921,0-5.289-2.368-5.289-5.289Z" fill="#f8f8f8"/>
  </g>
  <g>
    <g clip-path="url(#clippath)">
      <rect x=".015" y="-44.843" width="689.686" height="689.686" fill="url(#linear-gradient)"/>
    </g>
    <g clip-path="url(#clippath-1)">
      <rect x=".015" y="-44.843" width="689.686" height="689.686" fill="url(#linear-gradient)"/>
    </g>
    <g clip-path="url(#clippath-2)">
      <rect x=".015" y="-44.843" width="689.686" height="689.686" fill="url(#linear-gradient)"/>
    </g>
    <g clip-path="url(#clippath-3)">
      <rect x=".015" y="-44.843" width="689.686" height="689.686" fill="url(#linear-gradient)"/>
    </g>
  </g>
</svg>